<svg id="图层_1" data-name="图层 1" xmlns="http://www.w3.org/2000/svg" viewBox="0 0 209.89 45.86"><defs><style>.cls-1{fill:#4c4948;}.cls-2,.cls-3{fill:#bf0008;}.cls-2{fill-rule:evenodd;}</style></defs><title>Logo左右组合</title><path class="cls-1" d="M211.85,68.23v9.68h19V68.23Zm14.23,6h-9.33V71.9h9.33Z" transform="translate(-22.59 -55.89)"/><rect class="cls-1" x="187.69" y="6.85" width="22.2" height="3.78"/><path class="cls-1" d="M209.35,77.15h-2.18c1.53-2.83,2.56-5.26,2.56-5.26V67.75h-2.61L205.18,62h-4.76l1.93,5.8h-4.22v4.72h5.92c-1.18,2.69-5,7.55-7.86,10.31l2.55,3.78a29.76,29.76,0,0,0,3.19-3.23v13.8h4.77V81.22l1.49,3.55h2.13v12h22V79.63H210.4Zm14.42,6h3.82V86.5h-3.82Zm0,6.84h3.82v3.38h-3.82Zm-8.57-6.84h3.85V86.5H215.2Zm0,6.84h3.85v3.38H215.2Z" transform="translate(-22.59 -55.89)"/><path class="cls-1" d="M151.73,87.91V84.73H131.58c.21-.26,1.73-1.69,1.73-1.69h18.42V67.18H138.3l.59-1.48h15.74V62H120.42V65.7h13l-.63,1.48h-8.53V83h3.2a41.82,41.82,0,0,1-7.83,5.81l2.22,3.23a45.63,45.63,0,0,0,5.61-3.74,28.65,28.65,0,0,0,4.93,3.25,95.46,95.46,0,0,1-11.72,1.83L121.4,97a86.53,86.53,0,0,0,16.94-3.16,68.89,68.89,0,0,0,15.9,3.13l.49-3.5a75.54,75.54,0,0,1-10.31-1.6,40.53,40.53,0,0,0,7.31-3.91m-22.9-17.52H147v1.42H128.83Zm0,4H147v1.42H128.83Zm0,4.12H147V80H128.83Zm9.47,11.72a36.57,36.57,0,0,1-5-2.46h11.11a43.83,43.83,0,0,1-6.09,2.46" transform="translate(-22.59 -55.89)"/><polygon class="cls-1" points="78.62 25 73.29 25 73.29 28.48 58.32 28.48 58.32 33.08 73.29 33.08 73.28 41.22 78.62 41.22 78.62 33.08 93.43 33.08 93.43 28.48 78.62 28.48 78.62 25"/><path class="cls-1" d="M179.2,83.76h13V79.68h-6.78l1.42-4.14h7.51V71.23H179.2V68.68h12.66V64.4H179.2V61.51h-5V64.4H161.51v4.28h12.65v2.55H159.05v4.31h7.16l1.43,4.14h-6.46v4.08h13v3.08H158.89v4.27h15.26v6h5v-6h15.25V86.84H179.2Zm-6.6-4.08-1.42-4.14h10.69l-1.42,4.14Z" transform="translate(-22.59 -55.89)"/><path class="cls-1" d="M86.23,73.09v8.42h4.91V72.93l1.29,4.37c1.93-.55,6-2.07,6-2.07V76c0,3.23,1.78,4.86,5.21,4.86h6.82c3,0,5.22-1.77,5.22-4.72V73h-4.28v1.81c0,1.28-.77,2-2.29,2h-3.35c-1.75,0-2.58-.71-2.58-2.14V73.09c4.27-2.11,7.56-3.94,11.13-6.14l-2.41-4a94.32,94.32,0,0,1-8.72,5V61.66H98.45v8.55c-2.68,1.14-7.31,2.59-7.31,2.59V67.9c1.58-1.79,3.49-4.55,3.49-4.55L90.81,60.5a59.06,59.06,0,0,1-11,12.11l2.75,3.52a44.5,44.5,0,0,0,3.65-3" transform="translate(-22.59 -55.89)"/><path class="cls-2" d="M45.52,69.77a9,9,0,1,0,9,9A9,9,0,0,0,45.52,69.77Zm0,9a4.07,4.07,0,1,0,0,8.14,8.14,8.14,0,1,1,0-16.27,4.07,4.07,0,0,1,0,8.13Z" transform="translate(-22.59 -55.89)"/><circle class="cls-3" cx="22.93" cy="5.59" r="5.59"/><circle class="cls-3" cx="10.67" cy="10.67" r="5.59"/><circle class="cls-3" cx="5.59" cy="22.93" r="5.59"/><circle class="cls-3" cx="10.67" cy="35.19" r="5.59"/><circle class="cls-3" cx="22.93" cy="40.27" r="5.59"/><circle class="cls-3" cx="35.19" cy="35.19" r="5.59"/><circle class="cls-3" cx="40.27" cy="22.93" r="5.59"/><circle class="cls-3" cx="35.19" cy="10.67" r="5.59"/></svg>